<svg xmlns="http://www.w3.org/2000/svg" xmlns:xlink="http://www.w3.org/1999/xlink" xmlns:lucid="lucid" width="1080.56" height="2109.4"><g transform="translate(1222.078715128204 104.07032121306382)" lucid:page-tab-id="0_0"><path d="M-1220.08 1787.34a12 12 0 0 1 12-12h769.46a12 12 0 0 1 12 12v204a12 12 0 0 1-12 12h-769.46a12 12 0 0 1-12-12z" stroke="#fff" stroke-width="4" fill="#333"/><path d="M-1220.08 1739.1a12 12 0 0 1 12-12h110.62a12 12 0 0 1 12 12v12.24a12 12 0 0 1-12 12h-110.62a12 12 0 0 1-12-12z" stroke="#fff" stroke-width="4" fill="#fff"/><use xlink:href="#a" transform="matrix(1,0,0,1,-1212.078715128204,1735.0846099597595) translate(0 16.589501953125)"/><use xlink:href="#b" transform="matrix(1,0,0,1,-1212.078715128204,1735.0846099597595) translate(80.64298828125 16.589501953125)"/><path d="M-968.52-41.82a12 12 0 0 1 12-12h801a12 12 0 0 1 12 12v1665.6a12 12 0 0 1-12 12h-801a12 12 0 0 1-12-12z" stroke="#fff" stroke-width="4" fill="#333"/><path d="M-968.52-90.07a12 12 0 0 1 12-12h210.2a12 12 0 0 1 12 12v12.25a12 12 0 0 1-12 12h-210.2a12 12 0 0 1-12-12z" stroke="#fff" stroke-width="4" fill="#fff"/><use xlink:href="#c" transform="matrix(1,0,0,1,-960.5161652894841,-94.07032121306382) translate(0 16.589501953125)"/><use xlink:href="#d" transform="matrix(1,0,0,1,-960.5161652894841,-94.07032121306382) translate(85.457373046875 16.589501953125)"/><use xlink:href="#e" transform="matrix(1,0,0,1,-960.5161652894841,-94.07032121306382) translate(119.280673828125 16.589501953125)"/><path d="M-661.85 1179.47a8 8 0 0 1 8-8h183.67a8 8 0 0 1 8 8v126a8 8 0 0 1-8 8h-183.67a8 8 0 0 1-8-8z" stroke="#000" stroke-width="2" fill="#ffb46e"/><use xlink:href="#f" transform="matrix(1,0,0,1,-656.8494986228175,1176.4705682814406) translate(36.796875 62.77777777777778)"/><use xlink:href="#g" transform="matrix(1,0,0,1,-656.8494986228175,1176.4705682814406) translate(83.89973958333334 62.77777777777778)"/><use xlink:href="#h" transform="matrix(1,0,0,1,-656.8494986228175,1176.4705682814406) translate(15.406901041666657 83.20746527777779)"/><use xlink:href="#i" transform="matrix(1,0,0,1,-656.8494986228175,1176.4705682814406) translate(73.55794270833333 83.20746527777779)"/><use xlink:href="#j" transform="matrix(1,0,0,1,-656.8494986228175,1176.4705682814406) translate(112.12022569444444 83.20746527777779)"/><path d="M-903.35 1491.8a8 8 0 0 1 8-8h144a8 8 0 0 1 8 8v104a8 8 0 0 1-8 8h-144a8 8 0 0 1-8-8z" stroke="#000" stroke-width="2" fill="#ffb46e"/><use xlink:href="#k" transform="matrix(1,0,0,1,-898.3494986228175,1488.7921041316292) translate(38.71527777777778 52.46527777777778)"/><use xlink:href="#l" transform="matrix(1,0,0,1,-898.3494986228175,1488.7921041316292) translate(28.561197916666664 72.89496527777779)"/><path d="M-642.02 598.83a8 8 0 0 1 8-8h144a8 8 0 0 1 8 8v104a8 8 0 0 1-8 8h-144a8 8 0 0 1-8-8z" stroke="#000" stroke-width="2" fill="#9ccaff"/><use xlink:href="#m" transform="matrix(1,0,0,1,-637.0161652894841,595.8274965810633) translate(32.801649305555564 45.59027777777778)"/><use xlink:href="#n" transform="matrix(1,0,0,1,-637.0161652894841,595.8274965810633) translate(18.34526909722223 66.01996527777779)"/><use xlink:href="#o" transform="matrix(1,0,0,1,-637.0161652894841,595.8274965810633) translate(90.517578125 66.01996527777779)"/><use xlink:href="#p" transform="matrix(1,0,0,1,-637.0161652894841,595.8274965810633) translate(57.06325954861111 84.84157986111111)"/><path d="M-380.68 1491.8a8 8 0 0 1 8-8h144a8 8 0 0 1 8 8v104a8 8 0 0 1-8 8h-144a8 8 0 0 1-8-8z" stroke="#000" stroke-width="2" fill="#ffb46e"/><use xlink:href="#q" transform="matrix(1,0,0,1,-375.6828319561507,1488.7921041316292) translate(5.246310763888886 52.46527777777778)"/><use xlink:href="#r" transform="matrix(1,0,0,1,-375.6828319561507,1488.7921041316292) translate(22.397460937499993 72.89496527777779)"/><use xlink:href="#s" transform="matrix(1,0,0,1,-375.6828319561507,1488.7921041316292) translate(64.33213975694444 72.89496527777779)"/><path d="M-642.02 889.15a8 8 0 0 1 8-8h144a8 8 0 0 1 8 8v104a8 8 0 0 1-8 8h-144a8 8 0 0 1-8-8z" stroke="#000" stroke-width="2" fill="#9ccaff"/><use xlink:href="#t" transform="matrix(1,0,0,1,-637.0161652894841,886.1490324312518) translate(15.364583333333336 62.77777777777778)"/><path d="M-665.35 292.5a8 8 0 0 1 8-8h190.67a8 8 0 0 1 8 8v120a8 8 0 0 1-8 8h-190.67a8 8 0 0 1-8-8z" stroke="#000" stroke-width="2" fill="#9ccaff"/><use xlink:href="#u" transform="matrix(1,0,0,1,-660.3494986228175,289.5059607308748) translate(35.41948784722223 60.90277777777778)"/><use xlink:href="#v" transform="matrix(1,0,0,1,-660.3494986228175,289.5059607308748) translate(138.52278645833331 60.90277777777778)"/><use xlink:href="#w" transform="matrix(1,0,0,1,-660.3494986228175,289.5059607308748) translate(41.397135416666664 81.33246527777779)"/><use xlink:href="#x" transform="matrix(1,0,0,1,-660.3494986228175,289.5059607308748) translate(92.70464409722223 81.33246527777779)"/><path d="M-665.35-13.82a8 8 0 0 1 8-8h190.67a8 8 0 0 1 8 8v120a8 8 0 0 1-8 8h-190.67a8 8 0 0 1-8-8z" stroke="#000" stroke-width="2" fill="#f18989"/><use xlink:href="#y" transform="matrix(1,0,0,1,-660.3494986228175,-16.81557511931382) translate(79.41362847222223 60.90277777777778)"/><use xlink:href="#z" transform="matrix(1,0,0,1,-660.3494986228175,-16.81557511931382) translate(34.3447265625 86.71006944444444)"/><use xlink:href="#A" transform="matrix(1,0,0,1,-660.3494986228175,-16.81557511931382) translate(99.75705295138889 86.71006944444444)"/><path d="M-562.02 422v151.44" stroke="#fff" fill="none"/><path d="M-561.54 422.02h-.95v-.5h.96z" stroke="#fff" stroke-width=".05" fill="#fff"/><path d="M-562.02 588.2l-4.63-14.26h9.27z" stroke="#fff" fill="#fff"/><path d="M-561.54 863.76h-.95v-57.02h.96zm0-78.53h-.95v-72.9h.96z" stroke="#fff" stroke-width=".05" fill="#fff"/><path d="M-561.54 712.34h-.95v-.5h.96z" fill="#fff"/><path stroke="#fff" stroke-width=".05" fill="#fff"/><path d="M-562.02 878.53l-4.63-14.26h9.27z" fill="#fff"/><path d="M-562.02 880.07l-5.28-16.28h10.57zm-3.98-15.33l3.98 12.25 4-12.26z" stroke="#fff" stroke-width=".05" fill="#fff"/><use xlink:href="#B" transform="matrix(1,0,0,1,-629.5161652894841,785.2330561728241) translate(0 17.22222222222222)"/><use xlink:href="#C" transform="matrix(1,0,0,1,-629.5161652894841,785.2330561728241) translate(72.51736111111111 17.22222222222222)"/><path d="M-561.54 1154.1h-.95v-69.46h.96zm0-90.97h-.95v-60.48h.96z" stroke="#fff" stroke-width=".05" fill="#fff"/><path d="M-561.54 1002.66h-.95v-.5h.96z" fill="#fff"/><path stroke="#fff" stroke-width=".05" fill="#fff"/><path d="M-562.02 1168.85l-4.63-14.26h9.27z" fill="#fff"/><path d="M-562.02 1170.4l-5.28-16.3h10.57zm-3.98-15.34l3.98 12.26 4-12.26z" stroke="#fff" stroke-width=".05" fill="#fff"/><use xlink:href="#D" transform="matrix(1,0,0,1,-627.7323111228175,1063.1316486284927) translate(0 17.22222222222222)"/><use xlink:href="#E" transform="matrix(1,0,0,1,-627.7323111228175,1063.1316486284927) translate(36.614583333333336 17.22222222222222)"/><path d="M-747.33 1427.5h-70l-.88.06-.86.2-.8.34-.74.45-.65.56-.57.67-.45.74-.33.8-.2.85-.07.9v33.36h-.95V1433l.07-1 .24-.98.38-.94.53-.87.67-.76.77-.66.87-.53.95-.4 1-.23.98-.08h70.04zm159.12-6.46l-.1 1-.22.98-.4.94-.52.87-.66.77-.78.66-.86.53-.94.38-1 .23-.98.1h-13.26v-.96h13.22l.88-.07.84-.2.8-.33.74-.45.66-.58.57-.65.44-.74.33-.8.2-.85.07-.88v-106.03h.95z" stroke="#fff" stroke-width=".05" fill="#fff"/><path d="M-588.2 1314.98h-.96v-.5h.95z" fill="#fff"/><path stroke="#fff" stroke-width=".05" fill="#fff"/><path d="M-823.35 1481.17l-4.63-14.26h9.27z" fill="#fff"/><path d="M-823.35 1482.7l-5.3-16.27h10.6zm-3.98-15.32l3.98 12.26 3.98-12.26z" stroke="#fff" stroke-width=".05" fill="#fff"/><use xlink:href="#F" transform="matrix(1,0,0,1,-747.3341037588971,1416.2630505148998) translate(0 17.22222222222222)"/><use xlink:href="#G" transform="matrix(1,0,0,1,-747.3341037588971,1416.2630505148998) translate(45.99826388888889 17.22222222222222)"/><path d="M-306.66 1426.54l1 .08.98.24.94.4.86.52.78.66.66.77.53.88.38.94.23 1 .1.98v33.4h-.96v-33.36l-.07-.9-.2-.83-.33-.8-.45-.73-.58-.66-.66-.55-.74-.45-.8-.33-.84-.2-.88-.08h-61.87v-.96zm-228.14-4.66l.2.84.33.8.45.75.57.65.65.57.74.44.8.33.85.2.87.07h53.44v.95h-53.47l-1-.1-.98-.22-.94-.4-.86-.52-.77-.66-.66-.77-.52-.87-.4-.94-.23-1-.07-.98v-106.07h.95V1421z" stroke="#fff" stroke-width=".05" fill="#fff"/><path d="M-534.87 1314.98h-.95v-.5h.95z" fill="#fff"/><path stroke="#fff" stroke-width=".05" fill="#fff"/><path d="M-300.68 1481.17l-4.64-14.26h9.27z" fill="#fff"/><path d="M-300.68 1482.7l-5.3-16.27h10.6zm-3.98-15.32l3.98 12.26 3.98-12.26z" stroke="#fff" stroke-width=".05" fill="#fff"/><use xlink:href="#H" transform="matrix(1,0,0,1,-475.8924533407995,1416.2630505148998) translate(0 17.22222222222222)"/><use xlink:href="#I" transform="matrix(1,0,0,1,-475.8924533407995,1416.2630505148998) translate(43.69791666666667 17.22222222222222)"/><path d="M-1067.36 1694.6l-4.1 15.97-3.74 17.66-3.28 19.43-2.67 21.2-1.92 22.86-.84 20.25-.96-.04.84-20.26v-.02l1.92-22.87v-.02l2.68-21.23v-.02l3.28-19.44v-.02l3.76-17.67v-.02l4.1-16 1.6-5.34h1zm162.52-150.32l-6.9.14-7.05.44-6.7.7-6.44.96-6.2 1.18-5.95 1.4-5.77 1.6-5.6 1.83-5.46 2.03-5.33 2.24-5.22 2.45-5.12 2.68-5.04 2.9-4.97 3.17-4.93 3.42-4.88 3.7-4.85 4-4.8 4.34-4.8 4.7-4.8 5.1-4.8 5.56-4.78 6.05-4.8 6.6-4.8 7.2-4.78 7.93-4.8 8.7-4.75 9.6-4.7 10.58-4.65 11.73-.1.3h-1l.2-.6v-.02h.02l4.64-11.75v-.02l4.73-10.6v-.02l4.76-9.6v-.02l4.8-8.73 4.8-7.95h.02l4.8-7.25h.02v-.02l4.8-6.6h.02v-.02l4.8-6.06 4.8-5.58h.02l4.8-5.13h.02l4.82-4.72v-.02l4.85-4.35 4.87-4.02 4.9-3.72h.02v-.02l4.93-3.43h.02l5-3.16 5.07-2.94 5.15-2.7 5.25-2.47 5.36-2.25h.02l5.5-2.05 5.63-1.83h.02l5.8-1.62 6-1.4h.02l6.2-1.2 6.47-.95h.02l6.72-.7h.02v-.02l7.06-.43h.02l6.92-.14z" stroke="#fff" stroke-width=".05" fill="#fff"/><path d="M-904.35 1544.27h-.5l-.03-.94h.53z" fill="#fff"/><path stroke="#fff" stroke-width=".05" fill="#fff"/><path d="M-1079.76 1812.54l-4.9 14.18-4.37-14.35z" fill="#fff"/><path d="M-1079.1 1812.07l-5.58 16.18-5-16.37zm-5.53 13.1l4.2-12.17-7.96-.14z" stroke="#fff" stroke-width=".05" fill="#fff"/><use xlink:href="#J" transform="matrix(1,0,0,1,-1123.9506209230856,1667.4993922672918) translate(0 17.22222222222222)"/><use xlink:href="#K" transform="matrix(1,0,0,1,-1123.9506209230856,1667.4993922672918) translate(48.689236111111114 17.22222222222222)"/><path d="M-578.42 1694.34v.02l4.1 16 3.75 17.68v.02l3.3 19.45v.02l2.67 21.24v.02l1.92 22.87v.02l.84 20.26-.94.04-.85-20.25-1.9-22.86-2.7-21.2-3.27-19.43-3.74-17.66-4.1-15.96-1.16-3.86h1zm-156.5-150.87h.02l7.06.44v.02h.02l6.74.7 6.47.96 6.2 1.2h.02l6 1.4h.02l5.8 1.62 5.64 1.83 5.5 2.04 5.36 2.26 5.25 2.47 5.15 2.7 5.07 2.93h.02l5 3.17 4.94 3.44h.02v.02l4.9 3.7v.02l4.86 4.02 4.85 4.36h.02v.02l4.82 4.7v.02l4.82 5.13 4.8 5.58h.02v.02l4.8 6.06v.02h.02l4.8 6.6v.02l4.82 7.25 4.8 7.95h.02l4.8 8.73v.02l4.77 9.6v.02l4.73 10.6v.02l4.66 11.75v.02l.8 2.33h-1l-.7-2.02-4.64-11.72-4.7-10.6-4.77-9.58-4.8-8.7-4.78-7.92-4.8-7.22-4.8-6.6-4.77-6.04-4.8-5.55-4.8-5.1-4.8-4.7-4.8-4.35-4.84-4-4.87-3.7-4.92-3.42-4.96-3.16-5.04-2.9-5.12-2.7-5.22-2.44-5.33-2.24-5.46-2.03-5.6-1.82-5.78-1.6-5.97-1.4-6.2-1.18-6.42-.95-6.7-.7-7.05-.45-6.9-.14v-.95z" stroke="#fff" stroke-width=".05" fill="#fff"/><path d="M-741.82 1543.33l-.02.95h-.5v-.96z" fill="#fff"/><path stroke="#fff" stroke-width=".05" fill="#fff"/><path d="M-562.04 1826.72l-4.9-14.18 9.27-.17z" fill="#fff"/><path d="M-562.02 1828.25l-5.58-16.18 10.58-.2zm-4.25-15.25l4.2 12.18 3.76-12.33z" stroke="#fff" stroke-width=".05" fill="#fff"/><use xlink:href="#L" transform="matrix(1,0,0,1,-649.0782790554558,1669.2285695058983) translate(0 17.22222222222222)"/><use xlink:href="#M" transform="matrix(1,0,0,1,-649.0782790554558,1669.2285695058983) translate(85.64236111111113 17.22222222222222)"/><path d="M-561.54 267.12h-.95v-5.05h.96zm0-10.1h-.95v-10.1h.96zm0-15.14h-.95v-10.1h.96zm0-15.14h-.95v-10.1h.96zm0-15.15h-.95v-10.1h.96zm0-36.6h-.95v-3.8h.96zm0-8.84h-.95v-10.1h.96zm0-15.14h-.95v-10.1h.96zm0-15.14h-.95v-10.1h.96zm0-15.15h-.95v-5.05h.96z" stroke="#fff" stroke-width=".05" fill="#fff"/><path d="M-561.54 115.7h-.95v-.52h.96z" fill="#fff"/><path stroke="#fff" stroke-width=".05" fill="#fff"/><path d="M-562.02 281.9l-4.63-14.28h9.27z" fill="#fff"/><path d="M-562.02 283.43l-5.28-16.28h10.57zM-566 268.1l3.98 12.25 4-12.25z" stroke="#fff" stroke-width=".05" fill="#fff"/><use xlink:href="#N" transform="matrix(1,0,0,1,-610.2106097339285,175.01412127132423) translate(0 17.22222222222222)"/><path d="M-968.52-41.82a12 12 0 0 1 12-12h801a12 12 0 0 1 12 12v1665.6a12 12 0 0 1-12 12h-801a12 12 0 0 1-12-12z" stroke="#fff" stroke-width="4" fill="#333"/><path d="M-968.52-90.07a12 12 0 0 1 12-12h210.2a12 12 0 0 1 12 12v12.25a12 12 0 0 1-12 12h-210.2a12 12 0 0 1-12-12z" stroke="#fff" stroke-width="4" fill="#fff"/><use xlink:href="#c" transform="matrix(1,0,0,1,-960.5161652894841,-94.07032121306382) translate(0 16.589501953125)"/><use xlink:href="#d" transform="matrix(1,0,0,1,-960.5161652894841,-94.07032121306382) translate(85.457373046875 16.589501953125)"/><use xlink:href="#e" transform="matrix(1,0,0,1,-960.5161652894841,-94.07032121306382) translate(119.280673828125 16.589501953125)"/><path d="M-661.85 1179.47a8 8 0 0 1 8-8h183.67a8 8 0 0 1 8 8v126a8 8 0 0 1-8 8h-183.67a8 8 0 0 1-8-8z" stroke="#000" stroke-width="2" fill="#ffb46e"/><use xlink:href="#f" transform="matrix(1,0,0,1,-656.8494986228175,1176.4705682814406) translate(36.796875 62.77777777777778)"/><use xlink:href="#g" transform="matrix(1,0,0,1,-656.8494986228175,1176.4705682814406) translate(83.89973958333334 62.77777777777778)"/><use xlink:href="#h" transform="matrix(1,0,0,1,-656.8494986228175,1176.4705682814406) translate(15.406901041666657 83.20746527777779)"/><use xlink:href="#i" transform="matrix(1,0,0,1,-656.8494986228175,1176.4705682814406) translate(73.55794270833333 83.20746527777779)"/><use xlink:href="#j" transform="matrix(1,0,0,1,-656.8494986228175,1176.4705682814406) translate(112.12022569444444 83.20746527777779)"/><path d="M-903.35 1491.8a8 8 0 0 1 8-8h144a8 8 0 0 1 8 8v104a8 8 0 0 1-8 8h-144a8 8 0 0 1-8-8z" stroke="#000" stroke-width="2" fill="#ffb46e"/><use xlink:href="#k" transform="matrix(1,0,0,1,-898.3494986228175,1488.7921041316292) translate(38.71527777777778 52.46527777777778)"/><use xlink:href="#l" transform="matrix(1,0,0,1,-898.3494986228175,1488.7921041316292) translate(28.561197916666664 72.89496527777779)"/><path d="M-642.02 598.83a8 8 0 0 1 8-8h144a8 8 0 0 1 8 8v104a8 8 0 0 1-8 8h-144a8 8 0 0 1-8-8z" stroke="#000" stroke-width="2" fill="#9ccaff"/><use xlink:href="#m" transform="matrix(1,0,0,1,-637.0161652894841,595.8274965810633) translate(32.801649305555564 45.59027777777778)"/><use xlink:href="#n" transform="matrix(1,0,0,1,-637.0161652894841,595.8274965810633) translate(18.34526909722223 66.01996527777779)"/><use xlink:href="#o" transform="matrix(1,0,0,1,-637.0161652894841,595.8274965810633) translate(90.517578125 66.01996527777779)"/><use xlink:href="#p" transform="matrix(1,0,0,1,-637.0161652894841,595.8274965810633) translate(57.06325954861111 84.84157986111111)"/><path d="M-380.68 1491.8a8 8 0 0 1 8-8h144a8 8 0 0 1 8 8v104a8 8 0 0 1-8 8h-144a8 8 0 0 1-8-8z" stroke="#000" stroke-width="2" fill="#ffb46e"/><use xlink:href="#q" transform="matrix(1,0,0,1,-375.6828319561507,1488.7921041316292) translate(5.246310763888886 52.46527777777778)"/><use xlink:href="#r" transform="matrix(1,0,0,1,-375.6828319561507,1488.7921041316292) translate(22.397460937499993 72.89496527777779)"/><use xlink:href="#s" transform="matrix(1,0,0,1,-375.6828319561507,1488.7921041316292) translate(64.33213975694444 72.89496527777779)"/><path d="M-642.02 889.15a8 8 0 0 1 8-8h144a8 8 0 0 1 8 8v104a8 8 0 0 1-8 8h-144a8 8 0 0 1-8-8z" stroke="#000" stroke-width="2" fill="#9ccaff"/><use xlink:href="#t" transform="matrix(1,0,0,1,-637.0161652894841,886.1490324312518) translate(15.364583333333336 62.77777777777778)"/><path d="M-665.35 292.5a8 8 0 0 1 8-8h190.67a8 8 0 0 1 8 8v120a8 8 0 0 1-8 8h-190.67a8 8 0 0 1-8-8z" stroke="#000" stroke-width="2" fill="#9ccaff"/><use xlink:href="#u" transform="matrix(1,0,0,1,-660.3494986228175,289.5059607308748) translate(35.41948784722223 60.90277777777778)"/><use xlink:href="#v" transform="matrix(1,0,0,1,-660.3494986228175,289.5059607308748) translate(138.52278645833331 60.90277777777778)"/><use xlink:href="#w" transform="matrix(1,0,0,1,-660.3494986228175,289.5059607308748) translate(41.397135416666664 81.33246527777779)"/><use xlink:href="#x" transform="matrix(1,0,0,1,-660.3494986228175,289.5059607308748) translate(92.70464409722223 81.33246527777779)"/><path d="M-665.35-13.82a8 8 0 0 1 8-8h190.67a8 8 0 0 1 8 8v120a8 8 0 0 1-8 8h-190.67a8 8 0 0 1-8-8z" stroke="#000" stroke-width="2" fill="#f18989"/><use xlink:href="#y" transform="matrix(1,0,0,1,-660.3494986228175,-16.81557511931382) translate(79.41362847222223 60.90277777777778)"/><use xlink:href="#z" transform="matrix(1,0,0,1,-660.3494986228175,-16.81557511931382) translate(34.3447265625 86.71006944444444)"/><use xlink:href="#A" transform="matrix(1,0,0,1,-660.3494986228175,-16.81557511931382) translate(99.75705295138889 86.71006944444444)"/><path d="M-562.02 422v151.44" stroke="#fff" fill="none"/><path d="M-561.54 422.02h-.95v-.5h.96z" stroke="#fff" stroke-width=".05" fill="#fff"/><path d="M-562.02 588.2l-4.63-14.26h9.27z" stroke="#fff" fill="#fff"/><path d="M-561.54 863.76h-.95v-57.02h.96zm0-78.53h-.95v-72.9h.96z" stroke="#fff" stroke-width=".05" fill="#fff"/><path d="M-561.54 712.34h-.95v-.5h.96z" fill="#fff"/><path stroke="#fff" stroke-width=".05" fill="#fff"/><path d="M-562.02 878.53l-4.63-14.26h9.27z" fill="#fff"/><path d="M-562.02 880.07l-5.28-16.28h10.57zm-3.98-15.33l3.98 12.25 4-12.26z" stroke="#fff" stroke-width=".05" fill="#fff"/><use xlink:href="#B" transform="matrix(1,0,0,1,-629.5161652894841,785.2330561728241) translate(0 17.22222222222222)"/><use xlink:href="#C" transform="matrix(1,0,0,1,-629.5161652894841,785.2330561728241) translate(72.51736111111111 17.22222222222222)"/><path d="M-561.54 1154.1h-.95v-69.46h.96zm0-90.97h-.95v-60.48h.96z" stroke="#fff" stroke-width=".05" fill="#fff"/><path d="M-561.54 1002.66h-.95v-.5h.96z" fill="#fff"/><path stroke="#fff" stroke-width=".05" fill="#fff"/><path d="M-562.02 1168.85l-4.63-14.26h9.27z" fill="#fff"/><path d="M-562.02 1170.4l-5.28-16.3h10.57zm-3.98-15.34l3.98 12.26 4-12.26z" stroke="#fff" stroke-width=".05" fill="#fff"/><g><use xlink:href="#D" transform="matrix(1,0,0,1,-627.7323111228175,1063.1316486284927) translate(0 17.22222222222222)"/><use xlink:href="#E" transform="matrix(1,0,0,1,-627.7323111228175,1063.1316486284927) translate(36.614583333333336 17.22222222222222)"/></g><path d="M-747.33 1427.5h-70l-.88.06-.86.2-.8.34-.74.45-.65.56-.57.67-.45.74-.33.8-.2.85-.07.9v33.36h-.95V1433l.07-1 .24-.98.38-.94.53-.87.67-.76.77-.66.87-.53.95-.4 1-.23.98-.08h70.04zm159.12-6.46l-.1 1-.22.98-.4.94-.52.87-.66.77-.78.66-.86.53-.94.38-1 .23-.98.1h-13.26v-.96h13.22l.88-.07.84-.2.8-.33.74-.45.66-.58.57-.65.44-.74.33-.8.2-.85.07-.88v-106.03h.95z" stroke="#fff" stroke-width=".05" fill="#fff"/><path d="M-588.2 1314.98h-.96v-.5h.95z" fill="#fff"/><path stroke="#fff" stroke-width=".05" fill="#fff"/><path d="M-823.35 1481.17l-4.63-14.26h9.27z" fill="#fff"/><path d="M-823.35 1482.7l-5.3-16.27h10.6zm-3.98-15.32l3.98 12.26 3.98-12.26z" stroke="#fff" stroke-width=".05" fill="#fff"/><g><use xlink:href="#F" transform="matrix(1,0,0,1,-747.3341037588971,1416.2630505148998) translate(0 17.22222222222222)"/><use xlink:href="#G" transform="matrix(1,0,0,1,-747.3341037588971,1416.2630505148998) translate(45.99826388888889 17.22222222222222)"/></g><path d="M-306.66 1426.54l1 .08.98.24.94.4.86.52.78.66.66.77.53.88.38.94.23 1 .1.98v33.4h-.96v-33.36l-.07-.9-.2-.83-.33-.8-.45-.73-.58-.66-.66-.55-.74-.45-.8-.33-.84-.2-.88-.08h-61.87v-.96zm-228.14-4.66l.2.84.33.8.45.75.57.65.65.57.74.44.8.33.85.2.87.07h53.44v.95h-53.47l-1-.1-.98-.22-.94-.4-.86-.52-.77-.66-.66-.77-.52-.87-.4-.94-.23-1-.07-.98v-106.07h.95V1421z" stroke="#fff" stroke-width=".05" fill="#fff"/><path d="M-534.87 1314.98h-.95v-.5h.95z" fill="#fff"/><path stroke="#fff" stroke-width=".05" fill="#fff"/><path d="M-300.68 1481.17l-4.64-14.26h9.27z" fill="#fff"/><path d="M-300.68 1482.7l-5.3-16.27h10.6zm-3.98-15.32l3.98 12.26 3.98-12.26z" stroke="#fff" stroke-width=".05" fill="#fff"/><g><use xlink:href="#H" transform="matrix(1,0,0,1,-475.8924533407995,1416.2630505148998) translate(0 17.22222222222222)"/><use xlink:href="#I" transform="matrix(1,0,0,1,-475.8924533407995,1416.2630505148998) translate(43.69791666666667 17.22222222222222)"/></g><path d="M-1067.36 1694.6l-4.1 15.97-3.74 17.66-3.28 19.43-2.67 21.2-1.92 22.86-.84 20.25-.96-.04.84-20.26v-.02l1.92-22.87v-.02l2.68-21.23v-.02l3.28-19.44v-.02l3.76-17.67v-.02l4.1-16 1.6-5.34h1zm162.52-150.32l-6.9.14-7.05.44-6.7.7-6.44.96-6.2 1.18-5.95 1.4-5.77 1.6-5.6 1.83-5.46 2.03-5.33 2.24-5.22 2.45-5.12 2.68-5.04 2.9-4.97 3.17-4.93 3.42-4.88 3.7-4.85 4-4.8 4.34-4.8 4.7-4.8 5.1-4.8 5.56-4.78 6.05-4.8 6.6-4.8 7.2-4.78 7.93-4.8 8.7-4.75 9.6-4.7 10.58-4.65 11.73-.1.3h-1l.2-.6v-.02h.02l4.64-11.75v-.02l4.73-10.6v-.02l4.76-9.6v-.02l4.8-8.73 4.8-7.95h.02l4.8-7.25h.02v-.02l4.8-6.6h.02v-.02l4.8-6.06 4.8-5.58h.02l4.8-5.13h.02l4.82-4.72v-.02l4.85-4.35 4.87-4.02 4.9-3.72h.02v-.02l4.93-3.43h.02l5-3.16 5.07-2.94 5.15-2.7 5.25-2.47 5.36-2.25h.02l5.5-2.05 5.63-1.83h.02l5.8-1.62 6-1.4h.02l6.2-1.2 6.47-.95h.02l6.72-.7h.02v-.02l7.06-.43h.02l6.92-.14z" stroke="#fff" stroke-width=".05" fill="#fff"/><path d="M-904.35 1544.27h-.5l-.03-.94h.53z" fill="#fff"/><path stroke="#fff" stroke-width=".05" fill="#fff"/><path d="M-1079.76 1812.54l-4.9 14.18-4.37-14.35z" fill="#fff"/><path d="M-1079.1 1812.07l-5.58 16.18-5-16.37zm-5.53 13.1l4.2-12.17-7.96-.14z" stroke="#fff" stroke-width=".05" fill="#fff"/><g><use xlink:href="#J" transform="matrix(1,0,0,1,-1123.9506209230856,1667.4993922672918) translate(0 17.22222222222222)"/><use xlink:href="#K" transform="matrix(1,0,0,1,-1123.9506209230856,1667.4993922672918) translate(48.689236111111114 17.22222222222222)"/></g><path d="M-578.42 1694.34v.02l4.1 16 3.75 17.68v.02l3.3 19.45v.02l2.67 21.24v.02l1.92 22.87v.02l.84 20.26-.94.04-.85-20.25-1.9-22.86-2.7-21.2-3.27-19.43-3.74-17.66-4.1-15.96-1.16-3.86h1zm-156.5-150.87h.02l7.06.44v.02h.02l6.74.7 6.47.96 6.2 1.2h.02l6 1.4h.02l5.8 1.62 5.64 1.83 5.5 2.04 5.36 2.26 5.25 2.47 5.15 2.7 5.07 2.93h.02l5 3.17 4.94 3.44h.02v.02l4.9 3.7v.02l4.86 4.02 4.85 4.36h.02v.02l4.82 4.7v.02l4.82 5.13 4.8 5.58h.02v.02l4.8 6.06v.02h.02l4.8 6.6v.02l4.82 7.25 4.8 7.95h.02l4.8 8.73v.02l4.77 9.6v.02l4.73 10.6v.02l4.66 11.75v.02l.8 2.33h-1l-.7-2.02-4.64-11.72-4.7-10.6-4.77-9.58-4.8-8.7-4.78-7.92-4.8-7.22-4.8-6.6-4.77-6.04-4.8-5.55-4.8-5.1-4.8-4.7-4.8-4.35-4.84-4-4.87-3.7-4.92-3.42-4.96-3.16-5.04-2.9-5.12-2.7-5.22-2.44-5.33-2.24-5.46-2.03-5.6-1.82-5.78-1.6-5.97-1.4-6.2-1.18-6.42-.95-6.7-.7-7.05-.45-6.9-.14v-.95z" stroke="#fff" stroke-width=".05" fill="#fff"/><path d="M-741.82 1543.33l-.02.95h-.5v-.96z" fill="#fff"/><path stroke="#fff" stroke-width=".05" fill="#fff"/><path d="M-562.04 1826.72l-4.9-14.18 9.27-.17z" fill="#fff"/><path d="M-562.02 1828.25l-5.58-16.18 10.58-.2zm-4.25-15.25l4.2 12.18 3.76-12.33z" stroke="#fff" stroke-width=".05" fill="#fff"/><g><use xlink:href="#L" transform="matrix(1,0,0,1,-649.0782790554558,1669.2285695058983) translate(0 17.22222222222222)"/><use xlink:href="#M" transform="matrix(1,0,0,1,-649.0782790554558,1669.2285695058983) translate(85.64236111111113 17.22222222222222)"/></g><path d="M-561.54 267.12h-.95v-5.05h.96zm0-10.1h-.95v-10.1h.96zm0-15.14h-.95v-10.1h.96zm0-15.14h-.95v-10.1h.96zm0-15.15h-.95v-10.1h.96zm0-36.6h-.95v-3.8h.96zm0-8.84h-.95v-10.1h.96zm0-15.14h-.95v-10.1h.96zm0-15.14h-.95v-10.1h.96zm0-15.15h-.95v-5.05h.96z" stroke="#fff" stroke-width=".05" fill="#fff"/><path d="M-561.54 115.7h-.95v-.52h.96z" fill="#fff"/><path stroke="#fff" stroke-width=".05" fill="#fff"/><path d="M-562.02 281.9l-4.63-14.28h9.27z" fill="#fff"/><path d="M-562.02 283.43l-5.28-16.28h10.57zM-566 268.1l3.98 12.25 4-12.25z" stroke="#fff" stroke-width=".05" fill="#fff"/><g><use xlink:href="#N" transform="matrix(1,0,0,1,-610.2106097339285,175.01412127132423) translate(0 17.22222222222222)"/></g><path d="M-1164.68 1837.33a8 8 0 0 1 8-8h144a8 8 0 0 1 8 8v104a8 8 0 0 1-8 8h-144a8 8 0 0 1-8-8z" stroke="#000" stroke-width="2" fill="#e8e2c8"/><g><use xlink:href="#O" transform="matrix(1,0,0,1,-1159.682831956151,1834.333333333333) translate(7.6226128472222285 62.77777777777778)"/><use xlink:href="#P" transform="matrix(1,0,0,1,-1159.682831956151,1834.333333333333) translate(74.27842881944444 62.77777777777778)"/></g><path d="M-642.02 1837.33a8 8 0 0 1 8-8h144a8 8 0 0 1 8 8v104a8 8 0 0 1-8 8h-144a8 8 0 0 1-8-8z" stroke="#000" stroke-width="2" fill="#e8e2c8"/><g><use xlink:href="#Q" transform="matrix(1,0,0,1,-637.0161652894841,1834.333333333333) translate(10.514322916666671 62.77777777777778)"/><use xlink:href="#R" transform="matrix(1,0,0,1,-637.0161652894841,1834.333333333333) translate(81.97699652777779 62.77777777777778)"/></g><defs><path d="M645 0H180v-1490h484c435 0 692 280 692 742 0 466-257 748-711 748zM370-168h263c363 0 539-218 539-580 0-358-176-574-521-574H370v1154" id="S"/><path d="M628 24c-324 0-524-230-524-574 0-343 198-582 503-582 237 0 487 146 487 559v75H286c9 234 145 362 343 362 132 0 231-58 273-172l174 48C1024-91 857 24 628 24zM287-650h624c-17-190-120-322-304-322-192 0-309 151-320 322" id="T"/><path d="M598-1118v154H368v674c0 100 37 144 132 144 23 0 62-6 92-12L629-6c-37 13-88 20-134 20-193 0-307-107-307-290v-688H20v-154h168v-266h180v266h230" id="U"/><path d="M613 24c-304 0-509-231-509-576 0-350 205-580 509-580 216 0 392 114 453 309l-173 49c-33-115-133-197-280-197-223 0-326 196-326 419 0 220 103 415 326 415 150 0 252-85 285-206l172 49C1010-95 832 24 613 24" id="V"/><path d="M158 0v-1118h180V0H158zm91-1301c-68 0-125-53-125-119s57-119 125-119c69 0 126 53 126 119s-57 119-126 119" id="W"/><path d="M613 24c-304 0-509-231-509-576 0-350 205-580 509-580 305 0 511 230 511 580 0 345-206 576-511 576zm0-161c226 0 329-195 329-415 0-222-103-419-329-419-223 0-326 196-326 419 0 220 103 415 326 415" id="X"/><path d="M338-670V0H158v-1118h173l1 207c72-158 192-221 342-221 226 0 378 139 378 422V0H872v-695c0-172-96-275-252-275-161 0-282 109-282 300" id="Y"/><g id="a"><use transform="matrix(0.008173828125000001,0,0,0.008173828125000001,0,0)" xlink:href="#S"/><use transform="matrix(0.008173828125000001,0,0,0.008173828125000001,12.08091796875,0)" xlink:href="#T"/><use transform="matrix(0.008173828125000001,0,0,0.008173828125000001,21.84046875,0)" xlink:href="#U"/><use transform="matrix(0.008173828125000001,0,0,0.008173828125000001,27.15345703125,0)" xlink:href="#T"/><use transform="matrix(0.008173828125000001,0,0,0.008173828125000001,36.9130078125,0)" xlink:href="#V"/><use transform="matrix(0.008173828125000001,0,0,0.008173828125000001,46.47638671875,0)" xlink:href="#U"/><use transform="matrix(0.008173828125000001,0,0,0.008173828125000001,51.9528515625,0)" xlink:href="#W"/><use transform="matrix(0.008173828125000001,0,0,0.008173828125000001,56.007070312500005,0)" xlink:href="#X"/><use transform="matrix(0.008173828125000001,0,0,0.008173828125000001,66.04453125,0)" xlink:href="#Y"/></g><path d="M338-1490V0H158v-1490h180" id="Z"/><path d="M611 442c-248 0-391-105-460-228l146-94c47 65 117 165 314 165 178 0 307-82 307-266v-224h-17C863-141 792-18 576-18c-268 0-472-195-472-546 0-346 197-568 476-568 216 0 288 133 326 193h17v-179h175V29c0 289-215 413-487 413zm-5-620c203 0 314-146 314-390 0-237-108-403-314-403-213 0-319 180-319 403 0 230 109 390 319 390" id="aa"/><g id="b"><use transform="matrix(0.008173828125000001,0,0,0.008173828125000001,0,0)" xlink:href="#Z"/><use transform="matrix(0.008173828125000001,0,0,0.008173828125000001,4.05421875,0)" xlink:href="#X"/><use transform="matrix(0.008173828125000001,0,0,0.008173828125000001,14.091679687500001,0)" xlink:href="#aa"/><use transform="matrix(0.008173828125000001,0,0,0.008173828125000001,24.358007812500002,0)" xlink:href="#W"/><use transform="matrix(0.008173828125000001,0,0,0.008173828125000001,28.412226562500003,0)" xlink:href="#V"/></g><path d="M600 0L52-1490h200c166 485 304 806 458 1336 156-533 285-846 449-1336h202L819 0H600" id="ab"/><path d="M158 0v-1118h174v172h12c41-113 157-188 290-188 26 0 70 2 91 3v181c-11-2-60-10-108-10-161 0-279 109-279 260V0H158" id="ac"/><path d="M537 14c-226 0-379-139-379-422v-710h180v695c0 172 97 275 253 275 160 0 281-109 281-300v-670h181V0H879v-209C806-46 684 14 537 14" id="ad"/><path d="M471 26C259 26 90-98 90-318c0-256 228-303 435-329 202-27 287-16 287-108 0-139-79-219-234-219-161 0-248 86-283 164l-173-57c86-203 278-265 451-265 150 0 419 46 419 395V0H815v-152h-12C765-73 660 26 471 26zm31-159c199 0 310-134 310-271v-155c-30 35-226 55-295 64-131 17-246 59-246 186 0 116 97 176 231 176" id="ae"/><path d="M180 0v-1490h528c311 0 458 177 458 395 0 191-114 278-244 313v14c139 9 302 137 302 371 0 225-148 397-499 397H180zm190-168h350c232 0 321-102 321-231 0-149-120-277-311-277H370v508zm0-668h328c160 0 286-101 286-255 0-129-87-231-280-231H370v486" id="af"/><path d="M65 0l393-574-370-544h210c88 136 192 297 267 435 67-142 176-302 264-435h206L661-564 1053 0H844c-94-144-206-310-287-458C484-308 366-142 273 0H65" id="ag"/><g id="c"><use transform="matrix(0.008173828125000001,0,0,0.008173828125000001,0,0)" xlink:href="#ab"/><use transform="matrix(0.008173828125000001,0,0,0.008173828125000001,11.549619140625001,0)" xlink:href="#W"/><use transform="matrix(0.008173828125000001,0,0,0.008173828125000001,15.603837890625002,0)" xlink:href="#ac"/><use transform="matrix(0.008173828125000001,0,0,0.008173828125000001,22.167421875000002,0)" xlink:href="#U"/><use transform="matrix(0.008173828125000001,0,0,0.008173828125000001,27.643886718750004,0)" xlink:href="#ad"/><use transform="matrix(0.008173828125000001,0,0,0.008173828125000001,37.542392578125,0)" xlink:href="#ae"/><use transform="matrix(0.008173828125000001,0,0,0.008173828125000001,46.942294921875,0)" xlink:href="#Z"/><use transform="matrix(0.008173828125000001,0,0,0.008173828125000001,50.99651367187501,0)" xlink:href="#af"/><use transform="matrix(0.008173828125000001,0,0,0.008173828125000001,61.94944335937501,0)" xlink:href="#X"/><use transform="matrix(0.008173828125000001,0,0,0.008173828125000001,71.610908203125,0)" xlink:href="#ag"/></g><path d="M180 0v-1490h190v1322h690V0H180" id="ah"/><path d="M677 24c-213 0-288-135-325-197h-20V0H158v-1490h180v551h14c37-59 106-193 324-193 279 0 474 222 474 576 0 356-194 580-473 580zm-27-161c209 0 317-186 317-421 0-232-105-413-317-413-206 0-314 166-314 413 0 249 111 421 314 421" id="ai"/><g id="d"><use transform="matrix(0.008173828125000001,0,0,0.008173828125000001,0,0)" xlink:href="#ah"/><use transform="matrix(0.008173828125000001,0,0,0.008173828125000001,9.465292968750001,0)" xlink:href="#ae"/><use transform="matrix(0.008173828125000001,0,0,0.008173828125000001,18.865195312500003,0)" xlink:href="#ai"/></g><path d="M180 0v-1490h908v168H370v486h669v168H370v500h727V0H180" id="aj"/><path d="M481 0L54-1118h197c107 314 236 620 325 951 87-331 217-637 324-951h197L670 0H481" id="ak"/><path d="M158 0v-1118h175l1 205c55-151 181-225 313-225 147 0 245 90 285 228 53-141 190-228 352-228 194 0 352 125 352 384V0h-181v-749c0-161-105-225-225-225-151 0-243 103-243 244V0H807v-767c0-124-93-207-219-207-131 0-250 92-250 270V0H158" id="al"/><g id="e"><use transform="matrix(0.008173828125000001,0,0,0.008173828125000001,0,0)" xlink:href="#aj"/><use transform="matrix(0.008173828125000001,0,0,0.008173828125000001,10.061982421875001,0)" xlink:href="#Y"/><use transform="matrix(0.008173828125000001,0,0,0.008173828125000001,19.707099609375,0)" xlink:href="#ak"/><use transform="matrix(0.008173828125000001,0,0,0.008173828125000001,29.115175781250002,0)" xlink:href="#W"/><use transform="matrix(0.008173828125000001,0,0,0.008173828125000001,33.169394531250006,0)" xlink:href="#ac"/><use transform="matrix(0.008173828125000001,0,0,0.008173828125000001,39.193505859375016,0)" xlink:href="#X"/><use transform="matrix(0.008173828125000001,0,0,0.008173828125000001,49.23096679687501,0)" xlink:href="#Y"/><use transform="matrix(0.008173828125000001,0,0,0.008173828125000001,59.121298828125006,0)" xlink:href="#al"/><use transform="matrix(0.008173828125000001,0,0,0.008173828125000001,73.785146484375,0)" xlink:href="#T"/><use transform="matrix(0.008173828125000001,0,0,0.008173828125000001,83.544697265625,0)" xlink:href="#Y"/><use transform="matrix(0.008173828125000001,0,0,0.008173828125000001,93.435029296875,0)" xlink:href="#U"/></g><path d="M180 0v-1490h190c0 262 1 526-3 784 217-279 467-523 702-784h249L716-845 1319 0h-225L585-716 370-489V0H180" id="am"/><g id="f"><use transform="matrix(0.010850694444444444,0,0,0.010850694444444444,0,0)" xlink:href="#aj"/><use transform="matrix(0.010850694444444444,0,0,0.010850694444444444,13.35720486111111,0)" xlink:href="#ah"/><use transform="matrix(0.010850694444444444,0,0,0.010850694444444444,25.92230902777778,0)" xlink:href="#am"/></g><path d="M657 26c-323 0-524-166-541-416h195c15 169 171 246 346 246 202 0 356-106 356-265 5-203-294-238-475-293-239-73-380-191-380-389 0-252 224-419 512-419 294 0 499 171 508 396H992c-17-145-151-228-328-228-193 0-321 102-321 242 0 156 175 211 284 241l149 41c160 44 422 134 422 412 0 244-197 432-541 432" id="an"/><g id="g"><use transform="matrix(0.010850694444444444,0,0,0.010850694444444444,0,0)" xlink:href="#an"/><use transform="matrix(0.010850694444444444,0,0,0.010850694444444444,14.2578125,0)" xlink:href="#T"/><use transform="matrix(0.010850694444444444,0,0,0.010850694444444444,27.213541666666664,0)" xlink:href="#ac"/><use transform="matrix(0.010850694444444444,0,0,0.010850694444444444,35.92664930555555,0)" xlink:href="#ak"/><use transform="matrix(0.010850694444444444,0,0,0.010850694444444444,47.98177083333333,0)" xlink:href="#T"/><use transform="matrix(0.010850694444444444,0,0,0.010850694444444444,60.937499999999986,0)" xlink:href="#ac"/></g><path d="M763 24c-353 0-583-224-583-531v-983h190v968c0 214 149 370 393 370 243 0 391-156 391-370v-968h190v983c0 307-230 531-581 531" id="ao"/><g id="h"><use transform="matrix(0.007595486111111112,0,0,0.007595486111111112,0,0)" xlink:href="#ao"/><use transform="matrix(0.007595486111111112,0,0,0.007595486111111112,11.575520833333334,0)" xlink:href="#ai"/><use transform="matrix(0.007595486111111112,0,0,0.007595486111111112,21.100260416666668,0)" xlink:href="#ad"/><use transform="matrix(0.007595486111111112,0,0,0.007595486111111112,30.298394097222225,0)" xlink:href="#Y"/><use transform="matrix(0.007595486111111112,0,0,0.007595486111111112,39.48893229166667,0)" xlink:href="#U"/><use transform="matrix(0.007595486111111112,0,0,0.007595486111111112,44.577907986111114,0)" xlink:href="#ad"/></g><path d="M180 0v-1490h190v644h782v-644h190V0h-190v-678H370V0H180" id="ap"/><path d="M538 24C308 24 148-78 108-271l171-41c32 123 123 178 257 178 156 0 256-77 256-169 0-77-54-128-164-154l-186-44c-203-48-300-148-300-305 0-192 176-326 414-326 230 0 351 112 402 269l-163 42c-31-80-94-158-238-158-133 0-233 69-233 162 0 83 57 129 188 160l169 40c203 48 298 149 298 302 0 196-179 339-441 339" id="aq"/><g id="i"><use transform="matrix(0.007595486111111112,0,0,0.007595486111111112,0,0)" xlink:href="#ap"/><use transform="matrix(0.007595486111111112,0,0,0.007595486111111112,11.560329861111112,0)" xlink:href="#X"/><use transform="matrix(0.007595486111111112,0,0,0.007595486111111112,20.887586805555557,0)" xlink:href="#aq"/><use transform="matrix(0.007595486111111112,0,0,0.007595486111111112,29.09830729166667,0)" xlink:href="#U"/></g><path d="M338-670V0H158v-1490h180v566c73-149 190-208 336-208 226 0 379 139 379 422V0H872v-695c0-172-96-275-252-275-161 0-282 109-282 300" id="ar"/><g id="j"><use transform="matrix(0.007595486111111112,0,0,0.007595486111111112,0,0)" xlink:href="#al"/><use transform="matrix(0.007595486111111112,0,0,0.007595486111111112,13.626302083333334,0)" xlink:href="#ae"/><use transform="matrix(0.007595486111111112,0,0,0.007595486111111112,22.361111111111114,0)" xlink:href="#V"/><use transform="matrix(0.007595486111111112,0,0,0.007595486111111112,31.247829861111114,0)" xlink:href="#ar"/><use transform="matrix(0.007595486111111112,0,0,0.007595486111111112,40.44596354166667,0)" xlink:href="#W"/><use transform="matrix(0.007595486111111112,0,0,0.007595486111111112,44.213324652777786,0)" xlink:href="#Y"/><use transform="matrix(0.007595486111111112,0,0,0.007595486111111112,53.40386284722223,0)" xlink:href="#T"/></g><g id="k"><use transform="matrix(0.010850694444444444,0,0,0.010850694444444444,0,0)" xlink:href="#am"/><use transform="matrix(0.010850694444444444,0,0,0.010850694444444444,15.277777777777777,0)" xlink:href="#W"/><use transform="matrix(0.010850694444444444,0,0,0.010850694444444444,20.65972222222222,0)" xlink:href="#ai"/><use transform="matrix(0.010850694444444444,0,0,0.010850694444444444,34.48350694444444,0)" xlink:href="#ae"/><use transform="matrix(0.010850694444444444,0,0,0.010850694444444444,46.96180555555556,0)" xlink:href="#Y"/><use transform="matrix(0.010850694444444444,0,0,0.010850694444444444,60.09114583333333,0)" xlink:href="#ae"/></g><path d="M126 0v-134l627-806v-11H146v-167h839v143L376-178v11h629V0H126" id="as"/><g id="l"><use transform="matrix(0.007595486111111112,0,0,0.007595486111111112,0,0)" xlink:href="#ab"/><use transform="matrix(0.007595486111111112,0,0,0.007595486111111112,10.732421875000002,0)" xlink:href="#W"/><use transform="matrix(0.007595486111111112,0,0,0.007595486111111112,14.499782986111114,0)" xlink:href="#aq"/><use transform="matrix(0.007595486111111112,0,0,0.007595486111111112,22.71050347222223,0)" xlink:href="#ad"/><use transform="matrix(0.007595486111111112,0,0,0.007595486111111112,31.90863715277779,0)" xlink:href="#ae"/><use transform="matrix(0.007595486111111112,0,0,0.007595486111111112,40.643446180555564,0)" xlink:href="#Z"/><use transform="matrix(0.007595486111111112,0,0,0.007595486111111112,44.41080729166668,0)" xlink:href="#W"/><use transform="matrix(0.007595486111111112,0,0,0.007595486111111112,48.17816840277779,0)" xlink:href="#as"/><use transform="matrix(0.007595486111111112,0,0,0.007595486111111112,56.76866319444446,0)" xlink:href="#ae"/><use transform="matrix(0.007595486111111112,0,0,0.007595486111111112,65.50347222222223,0)" xlink:href="#U"/><use transform="matrix(0.007595486111111112,0,0,0.007595486111111112,70.59244791666667,0)" xlink:href="#W"/><use transform="matrix(0.007595486111111112,0,0,0.007595486111111112,74.35980902777779,0)" xlink:href="#X"/><use transform="matrix(0.007595486111111112,0,0,0.007595486111111112,83.68706597222223,0)" xlink:href="#Y"/></g><path d="M140 405l46-156c120 36 205 19 263-150l32-93L54-1118h197c107 313 237 620 324 950 87-331 219-637 326-950h196L606 167c-68 178-176 259-334 259-64 0-113-12-132-21" id="at"/><g id="m"><use transform="matrix(0.010850694444444444,0,0,0.010850694444444444,0,0)" xlink:href="#an"/><use transform="matrix(0.010850694444444444,0,0,0.010850694444444444,14.2578125,0)" xlink:href="#at"/><use transform="matrix(0.010850694444444444,0,0,0.010850694444444444,26.74696180555556,0)" xlink:href="#aq"/><use transform="matrix(0.010850694444444444,0,0,0.010850694444444444,38.4765625,0)" xlink:href="#al"/><use transform="matrix(0.010850694444444444,0,0,0.010850694444444444,57.94270833333333,0)" xlink:href="#X"/><use transform="matrix(0.010850694444444444,0,0,0.010850694444444444,71.2673611111111,0)" xlink:href="#Y"/></g><path d="M458 0L52-1490h194c108 439 233 855 324 1313 92-459 221-873 331-1313h216c110 438 234 854 330 1307 92-455 216-869 323-1307h196L1558 0h-221l-256-944c-26-95-50-200-73-331-22 122-44 223-73 331L680 0H458" id="au"/><path d="M577 24c-279 0-473-224-473-580 0-354 195-576 474-576 218 0 287 134 324 193h14v-551h180V0H922v-173h-20C865-111 790 24 577 24zm27-161c203 0 314-172 314-421 0-247-108-413-314-413-212 0-317 181-317 413 0 235 108 421 317 421" id="av"/><path d="M409 0L70-1118h191c89 329 165 560 243 925 75-353 154-601 240-925h192c85 325 161 564 235 922 77-354 157-598 244-922h191L1267 0h-179c-86-307-176-590-250-913C763-588 675-308 588 0H409" id="aw"/><g id="n"><use transform="matrix(0.007595486111111112,0,0,0.007595486111111112,0,0)" xlink:href="#au"/><use transform="matrix(0.007595486111111112,0,0,0.007595486111111112,15.327690972222223,0)" xlink:href="#W"/><use transform="matrix(0.007595486111111112,0,0,0.007595486111111112,19.095052083333336,0)" xlink:href="#Y"/><use transform="matrix(0.007595486111111112,0,0,0.007595486111111112,28.28559027777778,0)" xlink:href="#av"/><use transform="matrix(0.007595486111111112,0,0,0.007595486111111112,37.810329861111114,0)" xlink:href="#X"/><use transform="matrix(0.007595486111111112,0,0,0.007595486111111112,46.85655381944444,0)" xlink:href="#aw"/><use transform="matrix(0.007595486111111112,0,0,0.007595486111111112,59.586588541666664,0)" xlink:href="#aq"/></g><g id="o"><use transform="matrix(0.007595486111111112,0,0,0.007595486111111112,0,0)" xlink:href="#aj"/><use transform="matrix(0.007595486111111112,0,0,0.007595486111111112,9.350043402777779,0)" xlink:href="#ak"/><use transform="matrix(0.007595486111111112,0,0,0.007595486111111112,17.78862847222222,0)" xlink:href="#T"/><use transform="matrix(0.007595486111111112,0,0,0.007595486111111112,26.85763888888889,0)" xlink:href="#Y"/><use transform="matrix(0.007595486111111112,0,0,0.007595486111111112,36.048177083333336,0)" xlink:href="#U"/></g><g id="p"><use transform="matrix(0.007595486111111112,0,0,0.007595486111111112,0,0)" xlink:href="#ah"/><use transform="matrix(0.007595486111111112,0,0,0.007595486111111112,8.795572916666668,0)" xlink:href="#X"/><use transform="matrix(0.007595486111111112,0,0,0.007595486111111112,18.122829861111114,0)" xlink:href="#aa"/><use transform="matrix(0.007595486111111112,0,0,0.007595486111111112,27.66276041666667,0)" xlink:href="#aq"/></g><g id="q"><use transform="matrix(0.010850694444444444,0,0,0.010850694444444444,0,0)" xlink:href="#aj"/><use transform="matrix(0.010850694444444444,0,0,0.010850694444444444,13.35720486111111,0)" xlink:href="#Z"/><use transform="matrix(0.010850694444444444,0,0,0.010850694444444444,18.739149305555557,0)" xlink:href="#ae"/><use transform="matrix(0.010850694444444444,0,0,0.010850694444444444,31.217447916666664,0)" xlink:href="#aq"/><use transform="matrix(0.010850694444444444,0,0,0.010850694444444444,42.947048611111114,0)" xlink:href="#U"/><use transform="matrix(0.010850694444444444,0,0,0.010850694444444444,50.2170138888889,0)" xlink:href="#W"/><use transform="matrix(0.010850694444444444,0,0,0.010850694444444444,55.59895833333333,0)" xlink:href="#V"/><use transform="matrix(0.010850694444444444,0,0,0.010850694444444444,68.29427083333334,0)" xlink:href="#aq"/><use transform="matrix(0.010850694444444444,0,0,0.010850694444444444,80.02387152777779,0)" xlink:href="#T"/><use transform="matrix(0.010850694444444444,0,0,0.010850694444444444,93.19661458333334,0)" xlink:href="#ae"/><use transform="matrix(0.010850694444444444,0,0,0.010850694444444444,105.67491319444446,0)" xlink:href="#ac"/><use transform="matrix(0.010850694444444444,0,0,0.010850694444444444,113.67187500000001,0)" xlink:href="#V"/><use transform="matrix(0.010850694444444444,0,0,0.010850694444444444,126.36718750000001,0)" xlink:href="#ar"/></g><path d="M370-1490V0H180v-1490h190" id="ax"/><path d="M180 0v-1490h270l367 940c28 72 75 218 110 339 35-117 81-264 110-339l362-940h271V0h-187c2-448-5-837 7-1287-157 497-311 829-483 1287H842C666-458 514-784 354-1284c12 438 5 843 7 1284H180" id="ay"/><g id="r"><use transform="matrix(0.007595486111111112,0,0,0.007595486111111112,0,0)" xlink:href="#an"/><use transform="matrix(0.007595486111111112,0,0,0.007595486111111112,9.980468750000002,0)" xlink:href="#ax"/><use transform="matrix(0.007595486111111112,0,0,0.007595486111111112,14.157986111111114,0)" xlink:href="#aj"/><use transform="matrix(0.007595486111111112,0,0,0.007595486111111112,23.508029513888893,0)" xlink:href="#ay"/></g><path d="M158 0v-1490h180v865h22l478-493h223L593-638 1096 0H865L456-523 338-412V0H158" id="az"/><g id="s"><use transform="matrix(0.007595486111111112,0,0,0.007595486111111112,0,0)" xlink:href="#ai"/><use transform="matrix(0.007595486111111112,0,0,0.007595486111111112,9.676649305555555,0)" xlink:href="#ae"/><use transform="matrix(0.007595486111111112,0,0,0.007595486111111112,18.411458333333336,0)" xlink:href="#V"/><use transform="matrix(0.007595486111111112,0,0,0.007595486111111112,27.298177083333336,0)" xlink:href="#az"/><use transform="matrix(0.007595486111111112,0,0,0.007595486111111112,35.486111111111114,0)" xlink:href="#T"/><use transform="matrix(0.007595486111111112,0,0,0.007595486111111112,44.555121527777786,0)" xlink:href="#Y"/><use transform="matrix(0.007595486111111112,0,0,0.007595486111111112,53.74565972222223,0)" xlink:href="#av"/></g><g id="t"><use transform="matrix(0.010850694444444444,0,0,0.010850694444444444,0,0)" xlink:href="#au"/><use transform="matrix(0.010850694444444444,0,0,0.010850694444444444,21.89670138888889,0)" xlink:href="#W"/><use transform="matrix(0.010850694444444444,0,0,0.010850694444444444,27.278645833333336,0)" xlink:href="#Y"/><use transform="matrix(0.010850694444444444,0,0,0.010850694444444444,40.407986111111114,0)" xlink:href="#Z"/><use transform="matrix(0.010850694444444444,0,0,0.010850694444444444,45.78993055555556,0)" xlink:href="#X"/><use transform="matrix(0.010850694444444444,0,0,0.010850694444444444,59.11458333333333,0)" xlink:href="#aa"/><use transform="matrix(0.010850694444444444,0,0,0.010850694444444444,72.74305555555556,0)" xlink:href="#ai"/><use transform="matrix(0.010850694444444444,0,0,0.010850694444444444,86.34982638888889,0)" xlink:href="#T"/><use transform="matrix(0.010850694444444444,0,0,0.010850694444444444,99.52256944444444,0)" xlink:href="#ae"/><use transform="matrix(0.010850694444444444,0,0,0.010850694444444444,112.00086805555556,0)" xlink:href="#U"/></g><g id="u"><use transform="matrix(0.010850694444444444,0,0,0.010850694444444444,0,0)" xlink:href="#au"/><use transform="matrix(0.010850694444444444,0,0,0.010850694444444444,21.89670138888889,0)" xlink:href="#W"/><use transform="matrix(0.010850694444444444,0,0,0.010850694444444444,27.278645833333336,0)" xlink:href="#Y"/><use transform="matrix(0.010850694444444444,0,0,0.010850694444444444,40.407986111111114,0)" xlink:href="#av"/><use transform="matrix(0.010850694444444444,0,0,0.010850694444444444,54.01475694444444,0)" xlink:href="#X"/><use transform="matrix(0.010850694444444444,0,0,0.010850694444444444,66.93793402777777,0)" xlink:href="#aw"/><use transform="matrix(0.010850694444444444,0,0,0.010850694444444444,85.12369791666666,0)" xlink:href="#aq"/></g><path d="M653-1490V0H466v-1314h-10L96-1047v-204l324-239h233" id="aA"/><path d="M646 20c-332 0-524-278-524-764 0-483 194-766 524-766s524 283 524 766c0 485-191 764-524 764zm0-166c218 0 341-220 341-598 0-380-123-601-341-601s-341 222-341 601c0 378 123 598 341 598" id="aB"/><g id="v"><use transform="matrix(0.010850694444444444,0,0,0.010850694444444444,0,0)" xlink:href="#aA"/><use transform="matrix(0.010850694444444444,0,0,0.010850694444444444,9.038628472222221,0)" xlink:href="#aB"/></g><path d="M98-1322v-168h1126v168H757V0H567v-1322H98" id="aC"/><g id="w"><use transform="matrix(0.007595486111111112,0,0,0.007595486111111112,0,0)" xlink:href="#aC"/><use transform="matrix(0.007595486111111112,0,0,0.007595486111111112,8.901909722222223,0)" xlink:href="#ae"/><use transform="matrix(0.007595486111111112,0,0,0.007595486111111112,17.63671875,0)" xlink:href="#ac"/><use transform="matrix(0.007595486111111112,0,0,0.007595486111111112,23.23459201388889,0)" xlink:href="#aa"/><use transform="matrix(0.007595486111111112,0,0,0.007595486111111112,32.77452256944444,0)" xlink:href="#T"/><use transform="matrix(0.007595486111111112,0,0,0.007595486111111112,41.843532986111114,0)" xlink:href="#U"/></g><g id="x"><use transform="matrix(0.007595486111111112,0,0,0.007595486111111112,0,0)" xlink:href="#ay"/><use transform="matrix(0.007595486111111112,0,0,0.007595486111111112,14.051649305555557,0)" xlink:href="#ae"/><use transform="matrix(0.007595486111111112,0,0,0.007595486111111112,22.786458333333336,0)" xlink:href="#V"/><use transform="matrix(0.007595486111111112,0,0,0.007595486111111112,31.673177083333336,0)" xlink:href="#ar"/><use transform="matrix(0.007595486111111112,0,0,0.007595486111111112,40.87131076388889,0)" xlink:href="#W"/><use transform="matrix(0.007595486111111112,0,0,0.007595486111111112,44.63867187500001,0)" xlink:href="#Y"/><use transform="matrix(0.007595486111111112,0,0,0.007595486111111112,53.82921006944445,0)" xlink:href="#T"/></g><g id="y"><use transform="matrix(0.010850694444444444,0,0,0.010850694444444444,0,0)" xlink:href="#am"/><use transform="matrix(0.010850694444444444,0,0,0.010850694444444444,14.930555555555555,0)" xlink:href="#ae"/><use transform="matrix(0.010850694444444444,0,0,0.010850694444444444,27.408854166666664,0)" xlink:href="#Z"/><use transform="matrix(0.010850694444444444,0,0,0.010850694444444444,32.79079861111111,0)" xlink:href="#W"/></g><path d="M52 0l541-1490h220L1361 0h-200l-149-416H398L254 0H52zm404-582h497c-103-290-145-390-251-756-108 377-145 460-246 756" id="aD"/><g id="z"><use transform="matrix(0.007595486111111112,0,0,0.007595486111111112,0,0)" xlink:href="#aD"/><use transform="matrix(0.007595486111111112,0,0,0.007595486111111112,10.428602430555557,0)" xlink:href="#U"/><use transform="matrix(0.007595486111111112,0,0,0.007595486111111112,15.137803819444446,0)" xlink:href="#U"/><use transform="matrix(0.007595486111111112,0,0,0.007595486111111112,20.302734375,0)" xlink:href="#ae"/><use transform="matrix(0.007595486111111112,0,0,0.007595486111111112,29.03754340277778,0)" xlink:href="#V"/><use transform="matrix(0.007595486111111112,0,0,0.007595486111111112,37.92426215277778,0)" xlink:href="#az"/><use transform="matrix(0.007595486111111112,0,0,0.007595486111111112,46.11219618055556,0)" xlink:href="#T"/><use transform="matrix(0.007595486111111112,0,0,0.007595486111111112,55.18120659722223,0)" xlink:href="#ac"/></g><g id="A"><use transform="matrix(0.007595486111111112,0,0,0.007595486111111112,0,0)" xlink:href="#ay"/><use transform="matrix(0.007595486111111112,0,0,0.007595486111111112,14.051649305555557,0)" xlink:href="#ae"/><use transform="matrix(0.007595486111111112,0,0,0.007595486111111112,22.786458333333336,0)" xlink:href="#V"/><use transform="matrix(0.007595486111111112,0,0,0.007595486111111112,31.673177083333336,0)" xlink:href="#ar"/><use transform="matrix(0.007595486111111112,0,0,0.007595486111111112,40.87131076388889,0)" xlink:href="#W"/><use transform="matrix(0.007595486111111112,0,0,0.007595486111111112,44.63867187500001,0)" xlink:href="#Y"/><use transform="matrix(0.007595486111111112,0,0,0.007595486111111112,53.82921006944445,0)" xlink:href="#T"/></g><path fill="#fff" d="M657 26c-323 0-524-166-541-416h195c15 169 171 246 346 246 202 0 356-106 356-265 5-203-294-238-475-293-239-73-380-191-380-389 0-252 224-419 512-419 294 0 499 171 508 396H992c-17-145-151-228-328-228-193 0-321 102-321 242 0 156 175 211 284 241l149 41c160 44 422 134 422 412 0 244-197 432-541 432" id="aE"/><path fill="#fff" d="M140 405l46-156c120 36 205 19 263-150l32-93L54-1118h197c107 313 237 620 324 950 87-331 219-637 326-950h196L606 167c-68 178-176 259-334 259-64 0-113-12-132-21" id="aF"/><path fill="#fff" d="M538 24C308 24 148-78 108-271l171-41c32 123 123 178 257 178 156 0 256-77 256-169 0-77-54-128-164-154l-186-44c-203-48-300-148-300-305 0-192 176-326 414-326 230 0 351 112 402 269l-163 42c-31-80-94-158-238-158-133 0-233 69-233 162 0 83 57 129 188 160l169 40c203 48 298 149 298 302 0 196-179 339-441 339" id="aG"/><path fill="#fff" d="M158 0v-1118h175l1 205c55-151 181-225 313-225 147 0 245 90 285 228 53-141 190-228 352-228 194 0 352 125 352 384V0h-181v-749c0-161-105-225-225-225-151 0-243 103-243 244V0H807v-767c0-124-93-207-219-207-131 0-250 92-250 270V0H158" id="aH"/><path fill="#fff" d="M613 24c-304 0-509-231-509-576 0-350 205-580 509-580 305 0 511 230 511 580 0 345-206 576-511 576zm0-161c226 0 329-195 329-415 0-222-103-419-329-419-223 0-326 196-326 419 0 220 103 415 326 415" id="aI"/><path fill="#fff" d="M338-670V0H158v-1118h173l1 207c72-158 192-221 342-221 226 0 378 139 378 422V0H872v-695c0-172-96-275-252-275-161 0-282 109-282 300" id="aJ"/><g id="B"><use transform="matrix(0.008680555555555556,0,0,0.008680555555555556,0,0)" xlink:href="#aE"/><use transform="matrix(0.008680555555555556,0,0,0.008680555555555556,11.40625,0)" xlink:href="#aF"/><use transform="matrix(0.008680555555555556,0,0,0.008680555555555556,21.397569444444443,0)" xlink:href="#aG"/><use transform="matrix(0.008680555555555556,0,0,0.008680555555555556,30.78125,0)" xlink:href="#aH"/><use transform="matrix(0.008680555555555556,0,0,0.008680555555555556,46.35416666666667,0)" xlink:href="#aI"/><use transform="matrix(0.008680555555555556,0,0,0.008680555555555556,57.01388888888889,0)" xlink:href="#aJ"/></g><path fill="#fff" d="M338-1490V0H158v-1490h180" id="aK"/><path fill="#fff" d="M611 442c-248 0-391-105-460-228l146-94c47 65 117 165 314 165 178 0 307-82 307-266v-224h-17C863-141 792-18 576-18c-268 0-472-195-472-546 0-346 197-568 476-568 216 0 288 133 326 193h17v-179h175V29c0 289-215 413-487 413zm-5-620c203 0 314-146 314-390 0-237-108-403-314-403-213 0-319 180-319 403 0 230 109 390 319 390" id="aL"/><path fill="#fff" d="M158 0v-1118h180V0H158zm91-1301c-68 0-125-53-125-119s57-119 125-119c69 0 126 53 126 119s-57 119-126 119" id="aM"/><g id="C"><use transform="matrix(0.008680555555555556,0,0,0.008680555555555556,0,0)" xlink:href="#aK"/><use transform="matrix(0.008680555555555556,0,0,0.008680555555555556,4.305555555555555,0)" xlink:href="#aI"/><use transform="matrix(0.008680555555555556,0,0,0.008680555555555556,14.965277777777779,0)" xlink:href="#aL"/><use transform="matrix(0.008680555555555556,0,0,0.008680555555555556,25.868055555555557,0)" xlink:href="#aL"/><use transform="matrix(0.008680555555555556,0,0,0.008680555555555556,36.770833333333336,0)" xlink:href="#aM"/><use transform="matrix(0.008680555555555556,0,0,0.008680555555555556,41.07638888888889,0)" xlink:href="#aJ"/><use transform="matrix(0.008680555555555556,0,0,0.008680555555555556,51.579861111111114,0)" xlink:href="#aL"/></g><path fill="#fff" d="M180 0v-1490h190v1322h690V0H180" id="aN"/><g id="D"><use transform="matrix(0.008680555555555556,0,0,0.008680555555555556,0,0)" xlink:href="#aN"/><use transform="matrix(0.008680555555555556,0,0,0.008680555555555556,10.052083333333334,0)" xlink:href="#aI"/><use transform="matrix(0.008680555555555556,0,0,0.008680555555555556,20.711805555555557,0)" xlink:href="#aL"/></g><path fill="#fff" d="M180 0v-1490h901v168H370v510h643v168H370V0H180" id="aO"/><path fill="#fff" d="M158 0v-1118h174v172h12c41-113 157-188 290-188 26 0 70 2 91 3v181c-11-2-60-10-108-10-161 0-279 109-279 260V0H158" id="aP"/><path fill="#fff" d="M409 0L70-1118h191c89 329 165 560 243 925 75-353 154-601 240-925h192c85 325 161 564 235 922 77-354 157-598 244-922h191L1267 0h-179c-86-307-176-590-250-913C763-588 675-308 588 0H409" id="aQ"/><path fill="#fff" d="M471 26C259 26 90-98 90-318c0-256 228-303 435-329 202-27 287-16 287-108 0-139-79-219-234-219-161 0-248 86-283 164l-173-57c86-203 278-265 451-265 150 0 419 46 419 395V0H815v-152h-12C765-73 660 26 471 26zm31-159c199 0 310-134 310-271v-155c-30 35-226 55-295 64-131 17-246 59-246 186 0 116 97 176 231 176" id="aR"/><path fill="#fff" d="M577 24c-279 0-473-224-473-580 0-354 195-576 474-576 218 0 287 134 324 193h14v-551h180V0H922v-173h-20C865-111 790 24 577 24zm27-161c203 0 314-172 314-421 0-247-108-413-314-413-212 0-317 181-317 413 0 235 108 421 317 421" id="aS"/><g id="E"><use transform="matrix(0.008680555555555556,0,0,0.008680555555555556,0,0)" xlink:href="#aO"/><use transform="matrix(0.008680555555555556,0,0,0.008680555555555556,9.791666666666668,0)" xlink:href="#aI"/><use transform="matrix(0.008680555555555556,0,0,0.008680555555555556,20.451388888888893,0)" xlink:href="#aP"/><use transform="matrix(0.008680555555555556,0,0,0.008680555555555556,27.29166666666667,0)" xlink:href="#aQ"/><use transform="matrix(0.008680555555555556,0,0,0.008680555555555556,41.840277777777786,0)" xlink:href="#aR"/><use transform="matrix(0.008680555555555556,0,0,0.008680555555555556,51.82291666666667,0)" xlink:href="#aP"/><use transform="matrix(0.008680555555555556,0,0,0.008680555555555556,58.22048611111112,0)" xlink:href="#aS"/><use transform="matrix(0.008680555555555556,0,0,0.008680555555555556,69.10590277777779,0)" xlink:href="#aM"/><use transform="matrix(0.008680555555555556,0,0,0.008680555555555556,73.41145833333334,0)" xlink:href="#aJ"/><use transform="matrix(0.008680555555555556,0,0,0.008680555555555556,83.91493055555557,0)" xlink:href="#aL"/></g><g id="F"><use transform="matrix(0.008680555555555556,0,0,0.008680555555555556,0,0)" xlink:href="#aN"/><use transform="matrix(0.008680555555555556,0,0,0.008680555555555556,10.052083333333334,0)" xlink:href="#aI"/><use transform="matrix(0.008680555555555556,0,0,0.008680555555555556,20.711805555555557,0)" xlink:href="#aL"/><use transform="matrix(0.008680555555555556,0,0,0.008680555555555556,31.614583333333336,0)" xlink:href="#aG"/></g><path fill="#fff" d="M180 0v-1490h510c348 0 508 209 508 474 0 266-160 477-507 477H370V0H180zm190-706h312c236 0 327-133 327-310 0-176-91-307-329-307H370v617" id="aT"/><path fill="#fff" d="M613 24c-304 0-509-231-509-576 0-350 205-580 509-580 216 0 392 114 453 309l-173 49c-33-115-133-197-280-197-223 0-326 196-326 419 0 220 103 415 326 415 150 0 252-85 285-206l172 49C1010-95 832 24 613 24" id="aU"/><path fill="#fff" d="M628 24c-324 0-524-230-524-574 0-343 198-582 503-582 237 0 487 146 487 559v75H286c9 234 145 362 343 362 132 0 231-58 273-172l174 48C1024-91 857 24 628 24zM287-650h624c-17-190-120-322-304-322-192 0-309 151-320 322" id="aV"/><g id="G"><use transform="matrix(0.008680555555555556,0,0,0.008680555555555556,0,0)" xlink:href="#aT"/><use transform="matrix(0.008680555555555556,0,0,0.008680555555555556,11.354166666666668,0)" xlink:href="#aP"/><use transform="matrix(0.008680555555555556,0,0,0.008680555555555556,17.751736111111114,0)" xlink:href="#aI"/><use transform="matrix(0.008680555555555556,0,0,0.008680555555555556,28.411458333333336,0)" xlink:href="#aU"/><use transform="matrix(0.008680555555555556,0,0,0.008680555555555556,38.567708333333336,0)" xlink:href="#aV"/><use transform="matrix(0.008680555555555556,0,0,0.008680555555555556,48.93229166666667,0)" xlink:href="#aG"/><use transform="matrix(0.008680555555555556,0,0,0.008680555555555556,58.31597222222222,0)" xlink:href="#aG"/><use transform="matrix(0.008680555555555556,0,0,0.008680555555555556,67.69965277777779,0)" xlink:href="#aM"/><use transform="matrix(0.008680555555555556,0,0,0.008680555555555556,72.00520833333334,0)" xlink:href="#aJ"/><use transform="matrix(0.008680555555555556,0,0,0.008680555555555556,82.50868055555557,0)" xlink:href="#aL"/></g><path fill="#fff" d="M645 0H180v-1490h484c435 0 692 280 692 742 0 466-257 748-711 748zM370-168h263c363 0 539-218 539-580 0-358-176-574-521-574H370v1154" id="aW"/><path fill="#fff" d="M598-1118v154H368v674c0 100 37 144 132 144 23 0 62-6 92-12L629-6c-37 13-88 20-134 20-193 0-307-107-307-290v-688H20v-154h168v-266h180v266h230" id="aX"/><g id="H"><use transform="matrix(0.008680555555555556,0,0,0.008680555555555556,0,0)" xlink:href="#aW"/><use transform="matrix(0.008680555555555556,0,0,0.008680555555555556,12.829861111111112,0)" xlink:href="#aR"/><use transform="matrix(0.008680555555555556,0,0,0.008680555555555556,22.8125,0)" xlink:href="#aX"/><use transform="matrix(0.008680555555555556,0,0,0.008680555555555556,28.71527777777778,0)" xlink:href="#aR"/></g><g id="I"><use transform="matrix(0.008680555555555556,0,0,0.008680555555555556,0,0)" xlink:href="#aG"/><use transform="matrix(0.008680555555555556,0,0,0.008680555555555556,9.383680555555555,0)" xlink:href="#aX"/><use transform="matrix(0.008680555555555556,0,0,0.008680555555555556,15.026041666666668,0)" xlink:href="#aI"/><use transform="matrix(0.008680555555555556,0,0,0.008680555555555556,25.685763888888893,0)" xlink:href="#aP"/><use transform="matrix(0.008680555555555556,0,0,0.008680555555555556,32.37847222222223,0)" xlink:href="#aR"/><use transform="matrix(0.008680555555555556,0,0,0.008680555555555556,42.361111111111114,0)" xlink:href="#aL"/><use transform="matrix(0.008680555555555556,0,0,0.008680555555555556,53.26388888888889,0)" xlink:href="#aV"/></g><path fill="#fff" d="M98-1322v-168h1126v168H757V0H567v-1322H98" id="aY"/><g id="J"><use transform="matrix(0.008680555555555556,0,0,0.008680555555555556,0,0)" xlink:href="#aY"/><use transform="matrix(0.008680555555555556,0,0,0.008680555555555556,11.475694444444445,0)" xlink:href="#aY"/><use transform="matrix(0.008680555555555556,0,0,0.008680555555555556,22.95138888888889,0)" xlink:href="#aT"/><use transform="matrix(0.008680555555555556,0,0,0.008680555555555556,34.30555555555556,0)" xlink:href="#aG"/></g><path fill="#fff" d="M180 0v-1490h270l367 940c28 72 75 218 110 339 35-117 81-264 110-339l362-940h271V0h-187c2-448-5-837 7-1287-157 497-311 829-483 1287H842C666-458 514-784 354-1284c12 438 5 843 7 1284H180" id="aZ"/><path fill="#fff" d="M158 418v-1536h174v179h20c37-59 106-193 324-193 279 0 474 222 474 576 0 356-194 580-473 580-213 0-288-135-325-197h-14v591H158zm492-555c209 0 317-186 317-421 0-232-105-413-317-413-206 0-314 166-314 413 0 249 111 421 314 421" id="ba"/><g id="K"><use transform="matrix(0.008680555555555556,0,0,0.008680555555555556,0,0)" xlink:href="#aZ"/><use transform="matrix(0.008680555555555556,0,0,0.008680555555555556,16.05902777777778,0)" xlink:href="#aR"/><use transform="matrix(0.008680555555555556,0,0,0.008680555555555556,26.041666666666668,0)" xlink:href="#ba"/><use transform="matrix(0.008680555555555556,0,0,0.008680555555555556,36.927083333333336,0)" xlink:href="#ba"/><use transform="matrix(0.008680555555555556,0,0,0.008680555555555556,47.8125,0)" xlink:href="#aM"/><use transform="matrix(0.008680555555555556,0,0,0.008680555555555556,52.11805555555556,0)" xlink:href="#aJ"/><use transform="matrix(0.008680555555555556,0,0,0.008680555555555556,62.62152777777778,0)" xlink:href="#aL"/></g><g id="L"><use transform="matrix(0.008680555555555556,0,0,0.008680555555555556,0,0)" xlink:href="#aW"/><use transform="matrix(0.008680555555555556,0,0,0.008680555555555556,12.829861111111112,0)" xlink:href="#aV"/><use transform="matrix(0.008680555555555556,0,0,0.008680555555555556,23.194444444444446,0)" xlink:href="#aX"/><use transform="matrix(0.008680555555555556,0,0,0.008680555555555556,28.836805555555557,0)" xlink:href="#aV"/><use transform="matrix(0.008680555555555556,0,0,0.008680555555555556,39.20138888888889,0)" xlink:href="#aU"/><use transform="matrix(0.008680555555555556,0,0,0.008680555555555556,49.35763888888889,0)" xlink:href="#aX"/><use transform="matrix(0.008680555555555556,0,0,0.008680555555555556,55.173611111111114,0)" xlink:href="#aM"/><use transform="matrix(0.008680555555555556,0,0,0.008680555555555556,59.47916666666667,0)" xlink:href="#aI"/><use transform="matrix(0.008680555555555556,0,0,0.008680555555555556,70.1388888888889,0)" xlink:href="#aJ"/></g><path fill="#fff" d="M180 0v-1490h510c348 0 508 194 508 460 0 198-88 351-276 417L1256 0h-220L726-579c-117 2-238 0-356 1V0H180zm190-747h312c235 0 327-108 327-283 0-177-92-293-329-293H370v576" id="bb"/><path fill="#fff" d="M537 14c-226 0-379-139-379-422v-710h180v695c0 172 97 275 253 275 160 0 281-109 281-300v-670h181V0H879v-209C806-46 684 14 537 14" id="bc"/><g id="M"><use transform="matrix(0.008680555555555556,0,0,0.008680555555555556,0,0)" xlink:href="#bb"/><use transform="matrix(0.008680555555555556,0,0,0.008680555555555556,11.440972222222223,0)" xlink:href="#bc"/><use transform="matrix(0.008680555555555556,0,0,0.008680555555555556,21.953125,0)" xlink:href="#aK"/><use transform="matrix(0.008680555555555556,0,0,0.008680555555555556,26.258680555555557,0)" xlink:href="#aV"/><use transform="matrix(0.008680555555555556,0,0,0.008680555555555556,36.62326388888889,0)" xlink:href="#aG"/></g><path fill="#fff" d="M180 0v-1490h908v168H370v486h669v168H370v500h727V0H180" id="bd"/><path fill="#fff" d="M481 0L54-1118h197c107 314 236 620 325 951 87-331 217-637 324-951h197L670 0H481" id="be"/><path fill="#fff" d="M798-719v166H144v-166h654" id="bf"/><path fill="#fff" d="M458 0L52-1490h194c108 439 233 855 324 1313 92-459 221-873 331-1313h216c110 438 234 854 330 1307 92-455 216-869 323-1307h196L1558 0h-221l-256-944c-26-95-50-200-73-331-22 122-44 223-73 331L680 0H458" id="bg"/><g id="N"><use transform="matrix(0.008680555555555556,0,0,0.008680555555555556,0,0)" xlink:href="#bd"/><use transform="matrix(0.008680555555555556,0,0,0.008680555555555556,10.68576388888889,0)" xlink:href="#be"/><use transform="matrix(0.008680555555555556,0,0,0.008680555555555556,20.677083333333336,0)" xlink:href="#aM"/><use transform="matrix(0.008680555555555556,0,0,0.008680555555555556,24.982638888888893,0)" xlink:href="#aK"/><use transform="matrix(0.008680555555555556,0,0,0.008680555555555556,29.28819444444445,0)" xlink:href="#bf"/><use transform="matrix(0.008680555555555556,0,0,0.008680555555555556,36.56250000000001,0)" xlink:href="#bg"/><use transform="matrix(0.008680555555555556,0,0,0.008680555555555556,54.079861111111114,0)" xlink:href="#aM"/><use transform="matrix(0.008680555555555556,0,0,0.008680555555555556,58.38541666666667,0)" xlink:href="#aJ"/><use transform="matrix(0.008680555555555556,0,0,0.008680555555555556,68.8888888888889,0)" xlink:href="#bb"/><use transform="matrix(0.008680555555555556,0,0,0.008680555555555556,80.32986111111113,0)" xlink:href="#aZ"/></g><g id="O"><use transform="matrix(0.010850694444444444,0,0,0.010850694444444444,0,0)" xlink:href="#ay"/><use transform="matrix(0.010850694444444444,0,0,0.010850694444444444,20.07378472222222,0)" xlink:href="#W"/><use transform="matrix(0.010850694444444444,0,0,0.010850694444444444,25.455729166666664,0)" xlink:href="#U"/><use transform="matrix(0.010850694444444444,0,0,0.010850694444444444,32.18315972222222,0)" xlink:href="#U"/><use transform="matrix(0.010850694444444444,0,0,0.010850694444444444,39.453125,0)" xlink:href="#ac"/><use transform="matrix(0.010850694444444444,0,0,0.010850694444444444,47.45008680555556,0)" xlink:href="#T"/></g><path d="M580 20c-295 0-476-179-476-409 0-189 123-290 294-416-104-125-173-226-173-362 0-197 144-337 365-337 224 0 362 144 362 321 0 185-174 312-306 405l319 387c38-75 61-165 61-267h173c0 208-62 332-120 406L1287 0h-217L967-124C868-27 716 20 580 20zm279-273L507-675l-51 38c-123 91-167 162-167 254 0 147 113 246 278 246 107 0 210-41 292-116zM538-908l97-72c54-40 136-101 136-206 0-95-68-163-176-163-113 0-189 74-189 181 0 90 53 164 132 260" id="bh"/><g id="P"><use transform="matrix(0.010850694444444444,0,0,0.010850694444444444,0,0)" xlink:href="#aD"/><use transform="matrix(0.010850694444444444,0,0,0.010850694444444444,14.898003472222221,0)" xlink:href="#U"/><use transform="matrix(0.010850694444444444,0,0,0.010850694444444444,21.62543402777778,0)" xlink:href="#U"/><use transform="matrix(0.010850694444444444,0,0,0.010850694444444444,28.89539930555556,0)" xlink:href="#bh"/><use transform="matrix(0.010850694444444444,0,0,0.010850694444444444,43.20746527777778,0)" xlink:href="#V"/><use transform="matrix(0.010850694444444444,0,0,0.010850694444444444,55.90277777777778,0)" xlink:href="#az"/></g><g id="Q"><use transform="matrix(0.010850694444444444,0,0,0.010850694444444444,0,0)" xlink:href="#an"/><use transform="matrix(0.010850694444444444,0,0,0.010850694444444444,14.2578125,0)" xlink:href="#W"/><use transform="matrix(0.010850694444444444,0,0,0.010850694444444444,19.639756944444443,0)" xlink:href="#aa"/><use transform="matrix(0.010850694444444444,0,0,0.010850694444444444,33.268229166666664,0)" xlink:href="#al"/><use transform="matrix(0.010850694444444444,0,0,0.010850694444444444,52.734375,0)" xlink:href="#ae"/></g><path d="M180 0v-1490h510c348 0 508 194 508 460 0 198-88 351-276 417L1256 0h-220L726-579c-117 2-238 0-356 1V0H180zm190-747h312c235 0 327-108 327-283 0-177-92-293-329-293H370v576" id="bi"/><g id="R"><use transform="matrix(0.010850694444444444,0,0,0.010850694444444444,0,0)" xlink:href="#bi"/><use transform="matrix(0.010850694444444444,0,0,0.010850694444444444,14.301215277777777,0)" xlink:href="#ad"/><use transform="matrix(0.010850694444444444,0,0,0.010850694444444444,27.44140625,0)" xlink:href="#Z"/><use transform="matrix(0.010850694444444444,0,0,0.010850694444444444,32.82335069444444,0)" xlink:href="#T"/><use transform="matrix(0.010850694444444444,0,0,0.010850694444444444,45.77907986111111,0)" xlink:href="#aq"/></g></defs></g></svg>